# 3ds Max Wavefront OBJ Exporter v0.97b - (c)2007 guruware
# File Created: 12.07.2011 22:21:09

#
# object InteriorDoor
#

v -22.6551 0.0546 -0.9870
v 22.6551 0.0546 -0.9870
v 22.6551 0.0546 0.9871
v -22.6551 0.0546 0.9871
v 22.6551 89.1230 -0.9870
v -22.6551 89.1230 -0.9870
v -22.6551 89.1230 0.9871
v 22.6551 89.1230 0.9871
# 8 vertices

vn 0.0000 -1.0000 -0.0000
vn 0.0000 1.0000 -0.0000
vn 0.0000 0.0000 1.0000
vn 1.0000 0.0000 -0.0000
vn 0.0000 0.0000 -1.0000
vn -1.0000 0.0000 -0.0000
# 6 vertex normals

vt 0.7629 0.7990 0.0000
vt 0.7629 0.1700 0.0000
vt 0.7903 0.1700 0.0000
vt 0.7903 0.7990 0.0000
vt 0.7994 0.0942 0.0000
vt 0.7994 0.9139 0.0000
vt 0.7637 0.9139 0.0000
vt 0.7637 0.0942 0.0000
vt 0.8064 0.0375 -0.1244
vt 0.8064 0.9625 -0.1244
vt 0.1936 0.9625 -0.1244
vt 0.1936 0.0375 -0.1244
vt 0.7744 0.8622 0.0000
vt 0.7744 0.1427 0.0000
vt 0.7906 0.1427 0.0000
vt 0.7906 0.8622 0.0000
vt 0.8064 0.9625 1.1244
vt 0.1936 0.9625 1.1244
vt 0.1936 0.0375 1.1244
vt 0.8064 0.0375 1.1244
vt 0.7690 0.1163 0.0000
vt 0.7862 0.1163 0.0000
vt 0.7862 0.8739 0.0000
vt 0.7690 0.8739 0.0000
# 24 texture coords

f 1/1/1 2/2/1 3/3/1 4/4/1
f 5/5/2 6/6/2 7/7/2 8/8/2
f 3/9/3 8/10/3 7/11/3 4/12/3
f 8/13/4 4/14/4 2/15/4 5/16/4
f 6/17/5 5/18/5 2/19/5 1/20/5
f 1/21/6 4/22/6 7/23/6 6/24/6
# 6 polygons
